<mxfile host="Electron" modified="2023-04-22T02:03:12.624Z" agent="Mozilla/5.0 (Windows NT 10.0; Win64; x64) AppleWebKit/537.36 (KHTML, like Gecko) draw.io/21.1.2 Chrome/106.0.5249.199 Electron/21.4.3 Safari/537.36" etag="E1ZNBbq6rE1SbG-nZMgs" version="21.1.2" type="device">
  <diagram name="Page-1" id="GsRlpKX8dRmktHuupPU8">
    <mxGraphModel dx="1793" dy="1055" grid="1" gridSize="10" guides="1" tooltips="1" connect="1" arrows="1" fold="1" page="1" pageScale="1" pageWidth="1100" pageHeight="850" math="0" shadow="0">
      <root>
        <mxCell id="0" />
        <mxCell id="1" parent="0" />
        <mxCell id="b9u-j1JRYcApKoEHgzAw-1" value="Exam" style="rounded=1;whiteSpace=wrap;html=1;fontSize=25;" vertex="1" parent="1">
          <mxGeometry x="415" y="365" width="270" height="60" as="geometry" />
        </mxCell>
        <mxCell id="b9u-j1JRYcApKoEHgzAw-2" value="Choose A Mode" style="text;html=1;strokeColor=none;fillColor=none;align=center;verticalAlign=middle;whiteSpace=wrap;rounded=0;fontSize=25;" vertex="1" parent="1">
          <mxGeometry x="440" y="170" width="220" height="30" as="geometry" />
        </mxCell>
        <mxCell id="b9u-j1JRYcApKoEHgzAw-3" value="Practice" style="rounded=1;whiteSpace=wrap;html=1;fontSize=25;" vertex="1" parent="1">
          <mxGeometry x="415" y="265" width="270" height="60" as="geometry" />
        </mxCell>
        <mxCell id="b9u-j1JRYcApKoEHgzAw-4" value="Practice" style="rounded=1;whiteSpace=wrap;html=1;fontSize=25;" vertex="1" parent="1">
          <mxGeometry x="1510" y="20" width="270" height="60" as="geometry" />
        </mxCell>
        <mxCell id="b9u-j1JRYcApKoEHgzAw-5" value="&lt;font style=&quot;font-size: 25px;&quot;&gt;Choose a type of the question&lt;/font&gt;" style="rounded=1;whiteSpace=wrap;html=1;" vertex="1" parent="1">
          <mxGeometry x="1380" y="360" width="530" height="60" as="geometry" />
        </mxCell>
        <mxCell id="b9u-j1JRYcApKoEHgzAw-6" value="" style="triangle;whiteSpace=wrap;html=1;rotation=90;labelBackgroundColor=#000000;fillColor=#000000;" vertex="1" parent="1">
          <mxGeometry x="1830" y="370" width="30" height="40" as="geometry" />
        </mxCell>
        <mxCell id="b9u-j1JRYcApKoEHgzAw-9" value="Start" style="rounded=1;whiteSpace=wrap;html=1;fontSize=25;" vertex="1" parent="1">
          <mxGeometry x="1585" y="590" width="120" height="60" as="geometry" />
        </mxCell>
        <mxCell id="b9u-j1JRYcApKoEHgzAw-10" value="Practice" style="rounded=1;whiteSpace=wrap;html=1;fontSize=25;" vertex="1" parent="1">
          <mxGeometry x="2640" y="20" width="270" height="60" as="geometry" />
        </mxCell>
        <mxCell id="b9u-j1JRYcApKoEHgzAw-11" value="Questions Statement&lt;br&gt;&lt;br&gt;&lt;br&gt;A&lt;br&gt;B&lt;br&gt;C&lt;br&gt;D" style="rounded=1;whiteSpace=wrap;html=1;fontSize=20;" vertex="1" parent="1">
          <mxGeometry x="2400" y="180" width="730" height="390" as="geometry" />
        </mxCell>
        <mxCell id="b9u-j1JRYcApKoEHgzAw-12" value="Timer&lt;br&gt;(reset for each question)" style="text;html=1;strokeColor=none;fillColor=none;align=center;verticalAlign=middle;whiteSpace=wrap;rounded=0;fontSize=25;" vertex="1" parent="1">
          <mxGeometry x="2950" y="90" width="280" height="60" as="geometry" />
        </mxCell>
        <mxCell id="b9u-j1JRYcApKoEHgzAw-13" value="" style="html=1;shadow=0;dashed=0;shape=mxgraph.bootstrap.radioButton2;labelPosition=right;verticalLabelPosition=middle;align=left;verticalAlign=middle;gradientColor=#DEDEDE;fillColor=#EDEDED;checked=0;spacing=5;checkedFill=#0085FC;checkedStroke=#ffffff;" vertex="1" parent="1">
          <mxGeometry x="2730" y="370" width="10" height="10" as="geometry" />
        </mxCell>
        <mxCell id="b9u-j1JRYcApKoEHgzAw-16" value="" style="html=1;shadow=0;dashed=0;shape=mxgraph.bootstrap.radioButton2;labelPosition=right;verticalLabelPosition=middle;align=left;verticalAlign=middle;gradientColor=#DEDEDE;fillColor=#EDEDED;checked=0;spacing=5;checkedFill=#0085FC;checkedStroke=#ffffff;" vertex="1" parent="1">
          <mxGeometry x="2730" y="390" width="10" height="10" as="geometry" />
        </mxCell>
        <mxCell id="b9u-j1JRYcApKoEHgzAw-17" value="" style="html=1;shadow=0;dashed=0;shape=mxgraph.bootstrap.radioButton2;labelPosition=right;verticalLabelPosition=middle;align=left;verticalAlign=middle;gradientColor=#DEDEDE;fillColor=#EDEDED;checked=0;spacing=5;checkedFill=#0085FC;checkedStroke=#ffffff;" vertex="1" parent="1">
          <mxGeometry x="2730" y="415" width="10" height="10" as="geometry" />
        </mxCell>
        <mxCell id="b9u-j1JRYcApKoEHgzAw-18" value="" style="html=1;shadow=0;dashed=0;shape=mxgraph.bootstrap.radioButton2;labelPosition=right;verticalLabelPosition=middle;align=left;verticalAlign=middle;gradientColor=#DEDEDE;fillColor=#EDEDED;checked=0;spacing=5;checkedFill=#0085FC;checkedStroke=#ffffff;" vertex="1" parent="1">
          <mxGeometry x="2730" y="440" width="10" height="10" as="geometry" />
        </mxCell>
        <mxCell id="b9u-j1JRYcApKoEHgzAw-19" value="Check Answer" style="rounded=1;whiteSpace=wrap;html=1;" vertex="1" parent="1">
          <mxGeometry x="2696" y="480" width="120" height="30" as="geometry" />
        </mxCell>
        <mxCell id="b9u-j1JRYcApKoEHgzAw-20" value="" style="rounded=1;whiteSpace=wrap;html=1;" vertex="1" parent="1">
          <mxGeometry x="2330" y="610" width="360" height="220" as="geometry" />
        </mxCell>
        <mxCell id="b9u-j1JRYcApKoEHgzAw-21" value="" style="sketch=0;html=1;aspect=fixed;strokeColor=none;shadow=0;align=center;fillColor=#2D9C5E;verticalAlign=top;labelPosition=center;verticalLabelPosition=bottom;shape=mxgraph.gcp2.check" vertex="1" parent="1">
          <mxGeometry x="2460" y="670" width="100" height="80" as="geometry" />
        </mxCell>
        <mxCell id="b9u-j1JRYcApKoEHgzAw-23" value="" style="rounded=1;whiteSpace=wrap;html=1;" vertex="1" parent="1">
          <mxGeometry x="2800" y="610" width="360" height="220" as="geometry" />
        </mxCell>
        <mxCell id="b9u-j1JRYcApKoEHgzAw-25" value="C" style="text;html=1;align=center;verticalAlign=middle;resizable=0;points=[];autosize=1;strokeColor=none;fillColor=none;fontSize=20;" vertex="1" parent="1">
          <mxGeometry x="2960" y="750" width="40" height="40" as="geometry" />
        </mxCell>
        <mxCell id="b9u-j1JRYcApKoEHgzAw-26" value="" style="verticalLabelPosition=bottom;verticalAlign=top;html=1;shape=mxgraph.basic.x;fillColor=#FF0000;strokeColor=none;" vertex="1" parent="1">
          <mxGeometry x="2930" y="630" width="100" height="100" as="geometry" />
        </mxCell>
        <mxCell id="b9u-j1JRYcApKoEHgzAw-31" value="" style="dashed=0;labelPosition=right;align=left;shape=mxgraph.gmdl.checkbox;strokeColor=none;fillColor=#009587;strokeWidth=2;aspect=fixed;sketch=0;html=1;" vertex="1" parent="1">
          <mxGeometry x="2800" y="230" width="16" height="16" as="geometry" />
        </mxCell>
        <mxCell id="b9u-j1JRYcApKoEHgzAw-33" value="Flag for Review" style="rounded=1;whiteSpace=wrap;html=1;" vertex="1" parent="1">
          <mxGeometry x="2685" y="223" width="100" height="30" as="geometry" />
        </mxCell>
        <mxCell id="b9u-j1JRYcApKoEHgzAw-34" value="Skip (only flagged)" style="rounded=1;whiteSpace=wrap;html=1;fillColor=#d5e8d4;strokeColor=#82b366;" vertex="1" parent="1">
          <mxGeometry x="2890" y="480" width="120" height="30" as="geometry" />
        </mxCell>
        <mxCell id="b9u-j1JRYcApKoEHgzAw-35" value="Practice" style="rounded=1;whiteSpace=wrap;html=1;fontSize=25;" vertex="1" parent="1">
          <mxGeometry x="3680" y="15" width="270" height="60" as="geometry" />
        </mxCell>
        <mxCell id="b9u-j1JRYcApKoEHgzAw-36" value="Questions Statement&lt;br&gt;&lt;br&gt;&lt;br&gt;A&lt;br&gt;B&lt;br&gt;C&lt;br&gt;D" style="rounded=1;whiteSpace=wrap;html=1;fontSize=20;" vertex="1" parent="1">
          <mxGeometry x="3440" y="175" width="730" height="390" as="geometry" />
        </mxCell>
        <mxCell id="b9u-j1JRYcApKoEHgzAw-37" value="Timer&lt;br&gt;(reset for each question)" style="text;html=1;strokeColor=none;fillColor=none;align=center;verticalAlign=middle;whiteSpace=wrap;rounded=0;fontSize=25;" vertex="1" parent="1">
          <mxGeometry x="3990" y="85" width="280" height="60" as="geometry" />
        </mxCell>
        <mxCell id="b9u-j1JRYcApKoEHgzAw-38" value="" style="html=1;shadow=0;dashed=0;shape=mxgraph.bootstrap.radioButton2;labelPosition=right;verticalLabelPosition=middle;align=left;verticalAlign=middle;gradientColor=#DEDEDE;fillColor=#EDEDED;checked=0;spacing=5;checkedFill=#0085FC;checkedStroke=#ffffff;" vertex="1" parent="1">
          <mxGeometry x="3770" y="365" width="10" height="10" as="geometry" />
        </mxCell>
        <mxCell id="b9u-j1JRYcApKoEHgzAw-39" value="" style="html=1;shadow=0;dashed=0;shape=mxgraph.bootstrap.radioButton2;labelPosition=right;verticalLabelPosition=middle;align=left;verticalAlign=middle;gradientColor=#DEDEDE;fillColor=#EDEDED;checked=0;spacing=5;checkedFill=#0085FC;checkedStroke=#ffffff;" vertex="1" parent="1">
          <mxGeometry x="3770" y="385" width="10" height="10" as="geometry" />
        </mxCell>
        <mxCell id="b9u-j1JRYcApKoEHgzAw-40" value="" style="html=1;shadow=0;dashed=0;shape=mxgraph.bootstrap.radioButton2;labelPosition=right;verticalLabelPosition=middle;align=left;verticalAlign=middle;gradientColor=#DEDEDE;fillColor=#EDEDED;checked=0;spacing=5;checkedFill=#0085FC;checkedStroke=#ffffff;" vertex="1" parent="1">
          <mxGeometry x="3770" y="410" width="10" height="10" as="geometry" />
        </mxCell>
        <mxCell id="b9u-j1JRYcApKoEHgzAw-41" value="" style="html=1;shadow=0;dashed=0;shape=mxgraph.bootstrap.radioButton2;labelPosition=right;verticalLabelPosition=middle;align=left;verticalAlign=middle;gradientColor=#DEDEDE;fillColor=#EDEDED;checked=0;spacing=5;checkedFill=#0085FC;checkedStroke=#ffffff;" vertex="1" parent="1">
          <mxGeometry x="3770" y="435" width="10" height="10" as="geometry" />
        </mxCell>
        <mxCell id="b9u-j1JRYcApKoEHgzAw-42" value="End Practice" style="rounded=1;whiteSpace=wrap;html=1;" vertex="1" parent="1">
          <mxGeometry x="3736" y="600" width="120" height="30" as="geometry" />
        </mxCell>
        <mxCell id="b9u-j1JRYcApKoEHgzAw-48" value="" style="dashed=0;labelPosition=right;align=left;shape=mxgraph.gmdl.checkbox;strokeColor=none;fillColor=#009587;strokeWidth=2;aspect=fixed;sketch=0;html=1;" vertex="1" parent="1">
          <mxGeometry x="3840" y="225" width="16" height="16" as="geometry" />
        </mxCell>
        <mxCell id="b9u-j1JRYcApKoEHgzAw-49" value="Flag for Review" style="rounded=1;whiteSpace=wrap;html=1;" vertex="1" parent="1">
          <mxGeometry x="3725" y="218" width="100" height="30" as="geometry" />
        </mxCell>
        <mxCell id="b9u-j1JRYcApKoEHgzAw-50" value="Skip (only flagged)" style="rounded=1;whiteSpace=wrap;html=1;fillColor=#d5e8d4;strokeColor=#82b366;" vertex="1" parent="1">
          <mxGeometry x="3930" y="475" width="120" height="30" as="geometry" />
        </mxCell>
        <mxCell id="b9u-j1JRYcApKoEHgzAw-51" value="&lt;b&gt;Practice Report&lt;/b&gt;&lt;br&gt;1. How many questions taken.&lt;br&gt;2. How many right&lt;br&gt;3. how many wrong&lt;br&gt;4. percentage score" style="rounded=1;whiteSpace=wrap;html=1;" vertex="1" parent="1">
          <mxGeometry x="4515" y="130" width="745" height="250" as="geometry" />
        </mxCell>
        <mxCell id="b9u-j1JRYcApKoEHgzAw-52" value="&lt;font style=&quot;font-size: 25px;&quot;&gt;1. If no review questions flagged&lt;/font&gt;" style="text;html=1;align=center;verticalAlign=middle;resizable=0;points=[];autosize=1;strokeColor=none;fillColor=none;" vertex="1" parent="1">
          <mxGeometry x="4705" y="75" width="380" height="40" as="geometry" />
        </mxCell>
        <mxCell id="b9u-j1JRYcApKoEHgzAw-53" value="Review Wrong Questions" style="rounded=1;whiteSpace=wrap;html=1;fillColor=#d5e8d4;strokeColor=#82b366;" vertex="1" parent="1">
          <mxGeometry x="4800" y="320" width="160" height="40" as="geometry" />
        </mxCell>
        <mxCell id="b9u-j1JRYcApKoEHgzAw-54" value="Questions Statement&lt;br&gt;&lt;br&gt;&lt;br&gt;A&lt;br&gt;B&lt;br&gt;&lt;font color=&quot;#33ff33&quot;&gt;C&lt;/font&gt;&lt;br&gt;D" style="rounded=1;whiteSpace=wrap;html=1;fontSize=20;" vertex="1" parent="1">
          <mxGeometry x="4522.5" y="420" width="730" height="390" as="geometry" />
        </mxCell>
        <mxCell id="b9u-j1JRYcApKoEHgzAw-55" value="" style="html=1;shadow=0;dashed=0;shape=mxgraph.bootstrap.radioButton2;labelPosition=right;verticalLabelPosition=middle;align=left;verticalAlign=middle;gradientColor=#DEDEDE;fillColor=#EDEDED;checked=0;spacing=5;checkedFill=#0085FC;checkedStroke=#ffffff;" vertex="1" parent="1">
          <mxGeometry x="4852.5" y="610" width="10" height="10" as="geometry" />
        </mxCell>
        <mxCell id="b9u-j1JRYcApKoEHgzAw-56" value="" style="html=1;shadow=0;dashed=0;shape=mxgraph.bootstrap.radioButton2;labelPosition=right;verticalLabelPosition=middle;align=left;verticalAlign=middle;gradientColor=#DEDEDE;fillColor=#EDEDED;checked=0;spacing=5;checkedFill=#0085FC;checkedStroke=#ffffff;" vertex="1" parent="1">
          <mxGeometry x="4852.5" y="630" width="10" height="10" as="geometry" />
        </mxCell>
        <mxCell id="b9u-j1JRYcApKoEHgzAw-57" value="" style="html=1;shadow=0;dashed=0;shape=mxgraph.bootstrap.radioButton2;labelPosition=right;verticalLabelPosition=middle;align=left;verticalAlign=middle;gradientColor=#DEDEDE;fillColor=#EDEDED;checked=0;spacing=5;checkedFill=#0085FC;checkedStroke=#ffffff;" vertex="1" parent="1">
          <mxGeometry x="4852.5" y="655" width="10" height="10" as="geometry" />
        </mxCell>
        <mxCell id="b9u-j1JRYcApKoEHgzAw-58" value="" style="html=1;shadow=0;dashed=0;shape=mxgraph.bootstrap.radioButton2;labelPosition=right;verticalLabelPosition=middle;align=left;verticalAlign=middle;gradientColor=#DEDEDE;fillColor=#EDEDED;checked=0;spacing=5;checkedFill=#0085FC;checkedStroke=#ffffff;" vertex="1" parent="1">
          <mxGeometry x="4852.5" y="680" width="10" height="10" as="geometry" />
        </mxCell>
        <mxCell id="b9u-j1JRYcApKoEHgzAw-62" value="Next" style="rounded=1;whiteSpace=wrap;html=1;fillColor=#d5e8d4;strokeColor=#82b366;" vertex="1" parent="1">
          <mxGeometry x="4940" y="730" width="92.5" height="40" as="geometry" />
        </mxCell>
        <mxCell id="b9u-j1JRYcApKoEHgzAw-63" value="Previous" style="rounded=1;whiteSpace=wrap;html=1;fillColor=#d5e8d4;strokeColor=#82b366;" vertex="1" parent="1">
          <mxGeometry x="4770" y="730" width="92.5" height="40" as="geometry" />
        </mxCell>
        <mxCell id="b9u-j1JRYcApKoEHgzAw-64" value="Check Answer" style="rounded=1;whiteSpace=wrap;html=1;" vertex="1" parent="1">
          <mxGeometry x="3730" y="480" width="120" height="30" as="geometry" />
        </mxCell>
        <mxCell id="b9u-j1JRYcApKoEHgzAw-66" value="&lt;font style=&quot;font-size: 25px;&quot;&gt;2. If there are review questions flagged, show all remaining flagged questions&lt;/font&gt;" style="text;html=1;align=center;verticalAlign=middle;resizable=0;points=[];autosize=1;strokeColor=none;fillColor=none;" vertex="1" parent="1">
          <mxGeometry x="5540" y="52.5" width="880" height="40" as="geometry" />
        </mxCell>
        <mxCell id="b9u-j1JRYcApKoEHgzAw-75" value="Practice" style="rounded=1;whiteSpace=wrap;html=1;fontSize=25;" vertex="1" parent="1">
          <mxGeometry x="5870" y="115" width="270" height="60" as="geometry" />
        </mxCell>
        <mxCell id="b9u-j1JRYcApKoEHgzAw-76" value="Questions Statement&lt;br&gt;&lt;br&gt;&lt;br&gt;A&lt;br&gt;B&lt;br&gt;C&lt;br&gt;D" style="rounded=1;whiteSpace=wrap;html=1;fontSize=20;" vertex="1" parent="1">
          <mxGeometry x="5650" y="195" width="730" height="390" as="geometry" />
        </mxCell>
        <mxCell id="b9u-j1JRYcApKoEHgzAw-78" value="" style="html=1;shadow=0;dashed=0;shape=mxgraph.bootstrap.radioButton2;labelPosition=right;verticalLabelPosition=middle;align=left;verticalAlign=middle;gradientColor=#DEDEDE;fillColor=#EDEDED;checked=0;spacing=5;checkedFill=#0085FC;checkedStroke=#ffffff;" vertex="1" parent="1">
          <mxGeometry x="5980" y="385" width="10" height="10" as="geometry" />
        </mxCell>
        <mxCell id="b9u-j1JRYcApKoEHgzAw-79" value="" style="html=1;shadow=0;dashed=0;shape=mxgraph.bootstrap.radioButton2;labelPosition=right;verticalLabelPosition=middle;align=left;verticalAlign=middle;gradientColor=#DEDEDE;fillColor=#EDEDED;checked=0;spacing=5;checkedFill=#0085FC;checkedStroke=#ffffff;" vertex="1" parent="1">
          <mxGeometry x="5980" y="405" width="10" height="10" as="geometry" />
        </mxCell>
        <mxCell id="b9u-j1JRYcApKoEHgzAw-80" value="" style="html=1;shadow=0;dashed=0;shape=mxgraph.bootstrap.radioButton2;labelPosition=right;verticalLabelPosition=middle;align=left;verticalAlign=middle;gradientColor=#DEDEDE;fillColor=#EDEDED;checked=0;spacing=5;checkedFill=#0085FC;checkedStroke=#ffffff;" vertex="1" parent="1">
          <mxGeometry x="5980" y="430" width="10" height="10" as="geometry" />
        </mxCell>
        <mxCell id="b9u-j1JRYcApKoEHgzAw-81" value="" style="html=1;shadow=0;dashed=0;shape=mxgraph.bootstrap.radioButton2;labelPosition=right;verticalLabelPosition=middle;align=left;verticalAlign=middle;gradientColor=#DEDEDE;fillColor=#EDEDED;checked=0;spacing=5;checkedFill=#0085FC;checkedStroke=#ffffff;" vertex="1" parent="1">
          <mxGeometry x="5980" y="455" width="10" height="10" as="geometry" />
        </mxCell>
        <mxCell id="b9u-j1JRYcApKoEHgzAw-82" value="Check Answer" style="rounded=1;whiteSpace=wrap;html=1;" vertex="1" parent="1">
          <mxGeometry x="5946" y="495" width="120" height="30" as="geometry" />
        </mxCell>
        <mxCell id="b9u-j1JRYcApKoEHgzAw-83" value="" style="rounded=1;whiteSpace=wrap;html=1;" vertex="1" parent="1">
          <mxGeometry x="5591" y="610" width="360" height="220" as="geometry" />
        </mxCell>
        <mxCell id="b9u-j1JRYcApKoEHgzAw-84" value="" style="sketch=0;html=1;aspect=fixed;strokeColor=none;shadow=0;align=center;fillColor=#2D9C5E;verticalAlign=top;labelPosition=center;verticalLabelPosition=bottom;shape=mxgraph.gcp2.check" vertex="1" parent="1">
          <mxGeometry x="5721" y="670" width="100" height="80" as="geometry" />
        </mxCell>
        <mxCell id="b9u-j1JRYcApKoEHgzAw-85" value="" style="rounded=1;whiteSpace=wrap;html=1;" vertex="1" parent="1">
          <mxGeometry x="6061" y="610" width="360" height="220" as="geometry" />
        </mxCell>
        <mxCell id="b9u-j1JRYcApKoEHgzAw-86" value="C" style="text;html=1;align=center;verticalAlign=middle;resizable=0;points=[];autosize=1;strokeColor=none;fillColor=none;fontSize=20;" vertex="1" parent="1">
          <mxGeometry x="6221" y="750" width="40" height="40" as="geometry" />
        </mxCell>
        <mxCell id="b9u-j1JRYcApKoEHgzAw-87" value="" style="verticalLabelPosition=bottom;verticalAlign=top;html=1;shape=mxgraph.basic.x;fillColor=#FF0000;strokeColor=none;" vertex="1" parent="1">
          <mxGeometry x="6191" y="630" width="100" height="100" as="geometry" />
        </mxCell>
        <mxCell id="b9u-j1JRYcApKoEHgzAw-91" value="Ok" style="rounded=1;whiteSpace=wrap;html=1;" vertex="1" parent="1">
          <mxGeometry x="2460" y="775" width="80" height="35" as="geometry" />
        </mxCell>
        <mxCell id="b9u-j1JRYcApKoEHgzAw-92" value="Ok" style="rounded=1;whiteSpace=wrap;html=1;" vertex="1" parent="1">
          <mxGeometry x="2940" y="790" width="80" height="35" as="geometry" />
        </mxCell>
        <mxCell id="b9u-j1JRYcApKoEHgzAw-93" value="Ok" style="rounded=1;whiteSpace=wrap;html=1;" vertex="1" parent="1">
          <mxGeometry x="5721" y="780" width="80" height="35" as="geometry" />
        </mxCell>
        <mxCell id="b9u-j1JRYcApKoEHgzAw-95" value="Ok" style="rounded=1;whiteSpace=wrap;html=1;" vertex="1" parent="1">
          <mxGeometry x="6201" y="790" width="80" height="35" as="geometry" />
        </mxCell>
        <mxCell id="b9u-j1JRYcApKoEHgzAw-96" value="Include an option of a mixture of all 6 types" style="text;html=1;align=center;verticalAlign=middle;resizable=0;points=[];autosize=1;strokeColor=none;fillColor=none;fontSize=20;" vertex="1" parent="1">
          <mxGeometry x="1445" y="430" width="400" height="40" as="geometry" />
        </mxCell>
        <mxCell id="b9u-j1JRYcApKoEHgzAw-97" value="Time spent" style="rounded=1;whiteSpace=wrap;html=1;" vertex="1" parent="1">
          <mxGeometry x="2570" y="630" width="96" height="40" as="geometry" />
        </mxCell>
        <mxCell id="b9u-j1JRYcApKoEHgzAw-98" value="Time spent" style="rounded=1;whiteSpace=wrap;html=1;" vertex="1" parent="1">
          <mxGeometry x="3042" y="630" width="96" height="40" as="geometry" />
        </mxCell>
      </root>
    </mxGraphModel>
  </diagram>
</mxfile>
